<svg version="1.1" id="Layer_1" xmlns="http://www.w3.org/2000/svg" xmlns:xlink="http://www.w3.org/1999/xlink" x="0px" y="0px"
	 width="100%" viewBox="0 0 928 928" enable-background="new 0 0 928 928" xml:space="preserve">
<path fill="#FFFFFF" opacity="1.000000" stroke="none" 
	d="
M883.478271,332.624084 
	C890.951050,356.383057 896.305115,380.217438 900.215149,404.406189 
	C904.323181,429.819641 905.697510,455.388000 905.108948,481.085876 
	C904.342896,514.533813 899.063599,547.334229 890.850586,579.712280 
	C880.873047,619.046021 865.100159,655.927673 844.569641,690.897583 
	C822.631653,728.264893 795.580322,761.494019 763.773621,790.759766 
	C740.934875,811.774048 716.033508,830.100342 689.234558,845.974670 
	C661.711243,862.278076 632.678223,875.040588 602.447449,885.029846 
	C577.944214,893.126526 552.683228,898.020142 527.067810,901.792419 
	C496.195038,906.338989 465.367767,907.536560 434.422638,904.974487 
	C410.712708,903.011475 387.257568,899.041565 364.011841,893.637695 
	C329.885376,885.704285 297.557465,873.144714 266.545715,857.141968 
	C226.124496,836.283691 190.062515,809.443848 157.952667,777.167847 
	C124.279259,743.320129 96.880836,705.083435 75.549225,662.404968 
	C56.253925,623.800476 43.998100,582.916382 36.423382,540.611511 
	C30.676895,508.517365 29.715847,476.107178 31.451574,443.531097 
	C32.892963,416.479095 36.996895,389.941681 43.502037,363.680359 
	C53.622318,322.824615 69.130745,284.181702 90.505684,247.936707 
	C112.822243,210.095062 140.051651,176.227448 172.460236,146.466736 
	C201.743942,119.575607 234.075012,97.134178 269.449585,79.162170 
	C295.615723,65.868500 322.819122,55.122932 351.307037,47.644966 
	C370.499298,42.607086 389.763977,38.026405 409.449646,35.605255 
	C443.929474,31.364559 478.394043,30.893452 513.090515,34.331924 
	C553.044983,38.291466 591.388428,48.260189 628.706970,62.330441 
	C650.499878,70.547028 671.339417,81.086060 691.378540,93.101120 
	C719.205750,109.785728 744.867493,129.261246 768.404053,151.606567 
	C791.449890,173.486145 811.869446,197.523575 829.827942,223.747543 
	C852.862488,257.383759 870.158508,293.789368 883.478271,332.624084 
M388.854889,54.425461 
	C362.968994,59.413845 337.762543,66.662048 313.230347,76.390778 
	C283.216248,88.293465 255.113434,103.595634 228.441086,121.770348 
	C192.877136,146.003891 162.034760,175.259598 135.576294,209.014175 
	C111.326332,239.951248 91.863007,273.753204 76.961182,310.275665 
	C58.834396,354.702148 48.684181,400.856232 46.528927,448.589447 
	C43.995441,504.699646 51.746872,559.421204 71.098320,612.469604 
	C89.308914,662.390381 115.859230,707.271301 150.696960,747.158508 
	C175.553665,775.617920 203.869888,800.300049 235.630966,821.027161 
	C262.390503,838.490356 290.496521,853.264648 320.423981,864.289307 
	C350.445709,875.348694 381.282349,883.566040 413.183838,887.330627 
	C446.224731,891.229736 479.294098,891.757568 512.406494,888.486633 
	C545.872437,885.180664 578.313110,877.225464 609.945374,866.061218 
	C638.616150,855.942261 665.742432,842.541260 691.506836,826.327820 
	C730.188293,801.985840 764.090942,772.271545 793.232422,737.079285 
	C822.591248,701.624451 845.606262,662.502319 861.936829,619.423706 
	C873.908264,587.844238 883.004395,555.506042 886.448853,521.880737 
	C889.418274,492.892120 890.744141,463.851898 888.062683,434.620636 
	C885.053162,401.813599 879.295898,369.787933 869.032288,338.406433 
	C853.742004,291.655884 830.971436,248.989243 800.977783,210.203430 
	C774.408813,175.846375 742.990234,146.537216 707.234924,121.734009 
	C673.983765,98.667915 638.066467,81.116844 599.920959,68.072945 
	C562.624817,55.319500 523.934204,49.599579 484.724487,47.472412 
	C452.810181,45.741028 421.186066,49.304401 388.854889,54.425461 
z"/>
<path fill="#FFFFFF" opacity="1.000000" stroke="none" 
	d="
M812.981567,343.212280 
	C821.811218,370.379700 829.048889,397.557861 832.737244,425.520782 
	C835.749817,448.360474 835.716553,471.342285 834.424316,494.339600 
	C832.702820,524.975342 825.924805,554.587952 816.604492,583.675720 
	C804.764587,620.627197 786.733521,654.542480 764.149292,685.905151 
	C752.108093,702.626831 738.486206,718.192139 723.595337,732.608887 
	C698.281433,757.116821 670.110229,777.671448 638.921204,793.904358 
	C615.891479,805.890686 592.031067,816.224243 566.934875,823.128296 
	C547.200745,828.557251 526.946350,831.575928 506.641052,834.197144 
	C494.071564,835.819824 481.478302,836.945190 468.826447,837.057434 
	C445.079712,837.268188 421.719666,833.741821 398.454315,829.337158 
	C364.675629,822.942078 332.650116,811.558899 302.005493,796.079712 
	C263.849609,776.806519 230.033997,751.690613 200.980774,720.372009 
	C171.537369,688.632996 147.445221,653.296448 130.560226,613.217346 
	C115.453896,577.360229 105.494606,540.230042 102.114792,501.426544 
	C100.246910,479.981476 100.564262,458.580994 102.297775,437.073975 
	C103.951447,416.557495 107.214890,396.437592 112.522736,376.632324 
	C121.973419,341.368652 135.649292,307.763245 154.966461,276.776367 
	C177.687622,240.329071 205.599319,208.244843 239.557831,181.700790 
	C257.279846,167.848190 276.111053,155.801819 295.896484,144.932327 
	C322.884003,130.106277 351.593048,120.291176 381.058533,112.452431 
	C405.409851,105.974213 430.342682,103.355705 455.606903,102.409180 
	C489.853333,101.126137 523.510315,104.269646 556.530701,112.968803 
	C586.702881,120.917564 615.722595,131.994812 643.284424,146.959900 
	C670.994934,162.005783 696.283203,180.257751 719.202515,201.755386 
	C745.584717,226.501099 767.993408,254.517776 785.999207,285.955261 
	C796.450500,304.202911 804.968262,323.376160 812.981567,343.212280 
M825.951721,485.512360 
	C826.825867,466.362030 826.241150,447.304810 824.082336,428.208008 
	C820.826782,399.409119 814.470703,371.325165 804.133667,344.382385 
	C790.597839,309.102173 772.520325,276.223724 748.753906,246.547226 
	C728.839478,221.680557 706.379578,199.494095 680.820984,180.627304 
	C644.031555,153.470200 603.603088,133.600281 559.193848,122.035439 
	C534.273071,115.545700 508.977997,111.528419 483.301971,110.432846 
	C440.464233,108.604996 398.562317,114.401260 357.727386,127.530922 
	C332.113556,135.766556 307.660492,146.770416 284.591370,160.531143 
	C259.049194,175.767014 235.942902,194.192566 214.922943,215.370926 
	C195.693695,234.745041 178.652832,255.776276 164.217102,278.844849 
	C147.559113,305.464691 133.847946,333.535004 124.906120,363.786316 
	C115.709213,394.900574 109.898705,426.571594 109.154083,459.058197 
	C108.676765,479.882721 109.934647,500.572388 112.853172,521.268616 
	C116.291122,545.648254 122.345970,569.372192 130.823669,592.260376 
	C140.831253,619.278992 154.083557,644.852478 170.267609,668.922241 
	C192.437958,701.895142 219.234619,730.430176 250.773895,754.344971 
	C274.283813,772.171509 299.400116,787.479126 326.953003,798.649597 
	C350.149994,808.054199 373.662628,815.799072 398.315918,820.693176 
	C421.352844,825.266357 444.552612,826.978333 467.808990,827.402771 
	C498.017792,827.954102 527.965332,824.372192 557.270996,816.696472 
	C592.287354,807.524963 625.150818,793.152039 655.879700,774.102112 
	C688.805359,753.690491 717.824768,728.687683 742.596985,698.787476 
	C764.727539,672.075928 782.932129,643.069702 796.883789,611.225830 
	C814.341370,571.380188 823.558533,529.776489 825.951721,485.512360 
z"/>
<path fill="#FFFFFF" opacity="1.000000" stroke="none" 
	d="
M184.776993,683.191406 
	C165.278885,657.203308 149.710083,629.464600 137.744904,599.588867 
	C126.709900,572.035767 119.774048,543.480530 116.080414,514.190491 
	C112.574867,486.391937 112.280663,458.507721 115.484467,430.514496 
	C118.794571,401.592529 124.583603,373.350189 134.751160,346.092102 
	C146.572723,314.399750 162.366409,284.735992 182.537781,257.581848 
	C200.480255,233.428177 221.362503,211.987061 244.780945,193.019302 
	C268.082916,174.145874 293.427155,158.614792 320.696167,146.245193 
	C355.375732,130.514038 391.750275,121.102974 429.550446,116.441010 
	C466.355774,111.901741 502.679108,114.527924 538.773010,121.851280 
	C563.114014,126.790001 586.647339,134.375565 609.616150,144.022003 
	C633.747437,154.156647 656.279968,167.033844 677.212463,182.445190 
	C709.894592,206.507156 737.942627,235.223038 760.810242,268.990784 
	C776.496399,292.153931 789.496216,316.608917 799.381226,342.714600 
	C809.676758,369.904541 817.124390,397.870636 820.140076,426.845154 
	C823.987366,463.809723 822.924683,500.546539 815.867859,537.205688 
	C806.499695,585.871582 787.435303,630.233398 759.701660,671.121094 
	C746.927795,689.953613 732.370056,707.337097 716.100647,723.081726 
	C692.203552,746.207703 665.183044,765.205994 636.023926,781.371826 
	C610.901489,795.299744 584.223694,805.171753 556.744507,812.476990 
	C533.143433,818.751282 508.936890,822.619995 484.283417,823.414185 
	C450.287018,824.509277 416.729614,821.960144 383.717346,813.740967 
	C352.560852,805.983765 322.896240,794.388306 294.779785,778.727417 
	C260.240448,759.488892 230.027649,734.919189 203.422974,705.834106 
	C196.912704,698.716858 191.128159,690.935791 184.776993,683.191406 
M260.278259,191.783920 
	C256.785736,194.614395 253.323074,197.482651 249.795837,200.269165 
	C228.107529,217.402893 209.207779,237.288986 192.388153,259.133362 
	C172.972473,284.349365 157.360062,311.762939 145.866425,341.498749 
	C139.978424,356.731873 134.299973,372.099030 130.849380,388.019440 
	C124.136574,418.991028 120.874191,450.318848 121.791084,482.165894 
	C122.466576,505.628540 125.515045,528.720337 131.012589,551.315674 
	C139.479645,586.115967 153.444016,618.919495 172.200241,649.500854 
	C191.391159,680.791138 214.890427,708.445374 242.826294,732.393799 
	C266.259521,752.482300 291.809784,769.367798 319.701050,782.267578 
	C355.846832,798.985168 393.613098,810.152283 433.709686,813.307495 
	C464.442871,815.725952 495.039276,815.809509 525.350464,810.770325 
	C560.652893,804.901306 594.286987,793.520386 626.149292,776.841064 
	C654.381409,762.062073 680.457153,744.310120 703.609741,722.508423 
	C746.953247,681.694092 778.568542,633.354126 797.083679,576.447937 
	C806.323730,548.048706 812.362549,519.182922 813.559448,489.431396 
	C815.187988,448.953583 812.083191,409.008392 799.944885,369.941254 
	C790.036438,338.051178 776.414856,308.020355 758.422241,280.005188 
	C736.705994,246.192032 709.531433,217.299133 677.457092,193.114990 
	C653.839966,175.307571 628.355530,160.846237 601.114258,149.040131 
	C568.116272,134.739136 533.651245,127.502678 498.192871,124.170090 
	C475.590942,122.045815 452.947449,122.849373 430.356384,125.243645 
	C406.272522,127.796135 382.464874,132.078217 359.529602,139.701736 
	C323.920349,151.537964 291.086029,169.055878 260.278259,191.783920 
z"/>
<path fill="#FFFFFF" opacity="1.000000" stroke="none" 
	d="
M315.112061,636.235596 
	C317.445312,633.410522 320.275818,632.077637 323.320435,631.059204 
	C331.209106,628.420532 339.056274,625.654419 346.973633,623.105713 
	C361.488586,618.433167 370.140137,608.922546 372.581238,593.627380 
	C374.106934,584.068176 375.379211,574.477844 375.603851,564.844299 
	C377.056458,502.550690 377.078461,440.242126 376.475891,377.941132 
	C376.300629,359.819183 376.769806,341.621429 374.659454,323.550598 
	C373.693909,315.283020 372.695709,306.864807 369.202637,299.292969 
	C365.255371,290.736511 358.145294,285.205078 348.885559,282.987396 
	C343.878418,281.788208 338.731934,281.143494 333.627594,280.388672 
	C331.064789,280.009705 328.948364,279.264221 329.096710,276.215118 
	C329.256653,272.928101 331.866547,272.852844 334.218323,272.838501 
	C352.700409,272.725769 371.182800,272.603180 389.665070,272.609436 
	C424.814697,272.621368 459.964447,272.672272 495.113861,272.796112 
	C513.183289,272.859772 531.077209,274.825806 548.197021,280.743256 
	C572.795959,289.245941 593.490601,303.028748 603.683472,328.191589 
	C612.725708,350.513885 612.774048,373.343689 604.138000,395.961578 
	C598.085022,411.814362 585.966003,422.274597 572.257629,431.317444 
	C564.643433,436.340240 556.158752,439.224915 547.632690,442.086548 
	C546.400696,442.500061 544.997925,442.632660 544.047241,444.427887 
	C548.447205,447.229523 553.699341,447.306458 558.442871,448.733978 
	C576.111877,454.051300 592.304688,461.863617 605.057861,475.554474 
	C616.450134,487.784363 624.661865,501.447906 627.697327,518.497925 
	C631.746521,541.241943 628.789734,562.630493 618.425110,582.880676 
	C606.001831,607.152832 586.921326,624.392395 561.638611,635.131775 
	C529.022095,648.986267 495.520142,647.886658 461.463409,643.148804 
	C432.820770,639.164062 404.075623,638.829041 375.374878,643.230713 
	C360.068634,645.578186 344.793243,647.855103 330.124725,653.232300 
	C324.305237,655.365540 318.726746,657.848816 313.305084,660.770752 
	C311.535156,661.724670 309.635925,663.148193 307.795563,661.610168 
	C306.066162,660.164917 306.759918,657.904358 307.149567,655.952515 
	C308.536163,649.007080 311.765656,642.789062 315.112061,636.235596 
M418.204346,623.134583 
	C425.350128,623.552002 432.491364,624.205505 439.642548,624.343018 
	C461.901886,624.771057 484.187225,627.372253 506.387634,623.038208 
	C524.164246,619.567810 539.151428,611.076538 551.609985,598.244995 
	C564.871826,584.586121 571.928589,568.051086 572.691406,548.910278 
	C573.064087,539.558228 573.276428,530.031799 570.878418,521.092651 
	C565.597290,501.406525 554.618408,485.051117 538.416992,472.536591 
	C522.780640,460.458557 504.458282,456.410706 485.149323,455.152466 
	C468.517822,454.068634 451.880280,455.253784 435.264801,454.396606 
	C430.649231,454.158539 429.124695,456.389221 429.148346,460.738800 
	C429.247986,479.065704 429.217346,497.393555 429.184296,515.720947 
	C429.133514,543.864502 430.747223,572.000793 429.400940,600.155518 
	C429.172180,604.940063 428.238312,608.199707 423.330688,610.299316 
	C417.701691,612.707703 412.533447,616.197876 407.184418,619.251953 
	C406.041595,619.904419 404.792419,620.595459 405.683746,623.094116 
	C409.374878,623.094116 413.320740,623.094116 418.204346,623.134583 
M430.264160,313.635132 
	C430.025848,328.459747 429.670563,343.283630 429.574585,358.109161 
	C429.397736,385.433838 429.372528,412.759430 429.290619,440.084686 
	C429.289124,440.582611 429.337158,441.085632 429.414642,441.578033 
	C429.811462,444.100464 431.167419,445.232391 433.848328,445.237122 
	C454.465454,445.273529 475.089081,446.128845 495.369659,440.803284 
	C520.931641,434.090820 539.439270,419.233856 549.172241,394.511475 
	C556.558777,375.749084 556.775391,356.099701 551.075256,337.118225 
	C544.321594,314.628448 530.581482,297.407532 507.667908,288.762543 
	C485.820221,280.519745 463.310211,280.892090 440.635620,282.953247 
	C433.482056,283.603485 431.831573,285.484955 431.336212,292.715302 
	C430.880890,299.360992 430.619110,306.019928 430.264160,313.635132 
z"/>
<path fill="#FFFFFF" opacity="1.000000" stroke="none" 
	d="
M559.242676,647.139648 
	C573.584290,643.442932 586.624084,637.625305 599.250122,630.790588 
	C600.805298,629.948730 602.676453,628.301758 604.201233,629.936584 
	C606.034973,631.902710 603.959656,633.656006 602.732971,635.073608 
	C592.633362,646.745972 579.975525,654.951294 566.159241,661.440063 
	C551.576050,668.288940 536.135437,672.311279 520.165771,674.121155 
	C498.316498,676.597412 476.632782,675.012756 455.063354,670.987976 
	C430.693848,666.440674 406.376465,661.550964 381.681091,658.986633 
	C381.515411,658.969421 381.342896,658.971497 381.185974,658.923767 
	C378.797424,658.196777 375.179077,658.894592 375.066437,655.173584 
	C374.954376,651.472473 378.465240,651.593445 380.937927,651.081177 
	C394.097412,648.355042 407.449921,648.404419 420.746094,649.162537 
	C436.358002,650.052612 452.030884,650.935486 467.487640,653.147156 
	C479.744080,654.900879 491.942291,656.018860 504.242615,655.550964 
	C522.734497,654.847412 540.985352,652.214600 559.242676,647.139648 
z"/>
<path fill="#FFFFFF" opacity="1.000000" stroke="none" 
	d="
M227.316910,361.292969 
	C225.249802,364.813171 224.454742,368.716858 221.456802,371.162323 
	C221.029953,370.967010 220.743622,370.892609 220.746017,370.829102 
	C221.059494,362.516663 214.228180,360.677795 208.774200,357.589783 
	C203.847122,354.800079 198.974884,351.908875 193.988052,349.230804 
	C189.063614,346.586243 184.139725,342.467896 178.863083,349.069092 
	C178.295929,347.791321 177.836166,347.251007 177.960632,346.964142 
	C181.942657,337.785950 186.405548,328.733887 192.733459,321.045807 
	C200.599716,311.488708 209.688538,312.830383 215.800766,323.567657 
	C216.278061,324.406128 216.905640,325.159058 217.619431,326.173523 
	C222.864487,322.414398 228.138748,322.127197 232.749741,326.504242 
	C237.727417,331.229340 238.435120,337.220490 236.207275,343.569580 
	C234.043701,349.735504 230.646133,355.294312 227.316910,361.292969 
M211.135498,348.325928 
	C214.023590,349.948151 217.016785,351.411224 219.773926,353.231750 
	C223.466034,355.669678 225.959671,354.639923 227.778564,350.971802 
	C228.585495,349.344482 229.291199,347.664886 229.995407,345.989105 
	C231.856842,341.559540 230.785812,337.818817 227.033585,334.973389 
	C223.477829,332.277039 219.803360,333.044373 216.409012,335.359100 
	C212.115723,338.286774 209.074921,344.451141 210.164810,347.609467 
	C210.210098,347.740753 210.415680,347.816742 211.135498,348.325928 
M197.924393,341.450867 
	C203.904663,344.408386 204.774429,344.124298 207.807846,338.183716 
	C208.258377,337.301453 208.710724,336.413177 209.067261,335.490936 
	C211.315704,329.675232 207.749939,324.277740 201.535019,324.058044 
	C196.523148,323.880859 191.503479,327.775513 190.393509,332.963043 
	C189.208008,338.503632 194.028748,339.190796 197.924393,341.450867 
z"/>
<path fill="#FFFFFF" opacity="1.000000" stroke="none" 
	d="
M631.012207,238.019165 
	C634.066528,234.039841 636.915527,230.350021 639.727478,226.632233 
	C642.648804,222.769913 647.277222,219.281708 642.215942,214.012939 
	C644.546509,212.138016 645.815796,213.725403 647.020264,214.628845 
	C652.743103,218.921143 658.543274,223.132553 664.018188,227.727432 
	C670.563416,233.220535 672.404297,241.041931 669.373352,247.391785 
	C667.069519,252.218307 662.342712,253.070801 658.347351,254.457687 
	C657.526123,255.580139 657.949219,256.370636 658.088135,257.171600 
	C660.100159,268.777069 651.815369,275.805054 640.535461,272.133087 
	C634.331970,270.113708 629.641602,265.796356 624.683594,261.897095 
	C621.548462,259.431488 618.584534,256.747528 615.555115,254.148285 
	C614.384033,253.143463 613.415894,252.035614 614.033997,250.223862 
	C616.340637,248.884491 618.053467,253.250595 620.305054,250.992050 
	C621.941467,249.350647 623.350952,247.479446 624.825500,245.681137 
	C626.831909,243.234329 628.803894,240.759323 631.012207,238.019165 
M630.930054,252.391724 
	C627.407410,256.135406 628.797974,259.055023 632.314270,261.864471 
	C634.440552,263.563324 636.703796,264.820099 639.326111,265.412567 
	C645.051819,266.706177 650.221741,262.825806 650.161072,256.971222 
	C650.093018,250.400696 645.057983,246.843216 640.283142,244.246094 
	C636.428772,242.149704 635.698181,247.786667 633.213928,249.517944 
	C632.432983,250.062180 631.952087,251.036911 630.930054,252.391724 
M654.812683,226.580307 
	C651.440796,226.503510 642.723145,234.664688 642.816589,237.937057 
	C642.837463,238.667786 643.336365,239.524734 643.870544,240.076202 
	C645.951721,242.224609 648.188232,244.360794 651.039490,245.285049 
	C654.863342,246.524582 658.702698,246.307907 661.376831,242.749008 
	C663.949219,239.325485 664.008484,235.721710 661.263550,232.263748 
	C659.610229,230.180939 657.827759,228.228958 654.812683,226.580307 
z"/>
<path fill="#FFFFFF" opacity="1.000000" stroke="none" 
	d="
M354.717651,180.768051 
	C361.073029,175.754898 365.748840,175.552094 371.825897,179.711945 
	C380.888153,185.915192 389.945251,192.125946 399.003601,198.334976 
	C399.941071,198.977585 400.724304,199.971130 402.200348,199.642334 
	C403.480194,197.960770 402.577881,196.236420 402.053558,194.568405 
	C400.657227,190.126160 399.003998,185.756790 397.789734,181.267334 
	C396.538391,176.640778 395.307251,172.257690 388.833618,172.233414 
	C393.721344,167.709808 399.432800,167.035248 405.761902,166.591827 
	C398.118805,172.100189 402.344360,178.463196 403.870270,184.359833 
	C406.328918,193.860596 409.252533,203.240692 411.947052,212.681107 
	C412.347443,214.083954 412.978790,215.541641 411.376404,217.763794 
	C398.129547,209.791916 386.126007,199.658997 372.475677,192.261520 
	C372.089661,192.551895 371.703644,192.842270 371.317627,193.132660 
	C372.902832,198.972534 374.439056,204.826401 376.098114,210.645218 
	C376.734497,212.877106 377.931122,214.973602 378.378174,217.229736 
	C379.157196,221.161423 382.258209,221.585220 385.516052,222.017807 
	C382.013611,226.207764 374.379639,228.355896 370.025879,226.096970 
	C376.092194,222.630051 373.358185,218.004562 372.016632,213.489502 
	C369.884735,206.314713 367.765991,199.135544 365.716339,191.936966 
	C364.273712,186.870300 362.358826,182.415192 355.937469,182.485825 
	C355.532288,182.490280 355.117035,181.584213 354.717651,180.768051 
z"/>
<path fill="#FFFFFF" opacity="1.000000" stroke="none" 
	d="
M434.953064,171.205322 
	C435.692627,165.947342 431.251831,166.077408 428.704651,164.534378 
	C428.985352,161.948334 430.984802,162.151688 432.473236,161.930099 
	C442.542847,160.431030 452.715454,160.396500 462.855469,159.868988 
	C466.269531,159.691391 467.177979,161.529556 467.374817,164.394623 
	C467.564178,167.150864 468.569855,169.987457 466.500916,172.383270 
	C465.612091,172.594757 465.017242,172.366241 464.658691,171.723892 
	C463.418396,169.501846 463.486450,166.263138 460.145538,165.666245 
	C455.306091,164.801620 450.530029,165.691666 445.770081,166.435196 
	C444.671234,166.606842 444.275574,167.688873 444.208130,168.743057 
	C444.144470,169.738037 444.163025,170.739380 444.171967,171.737701 
	C444.275909,183.322372 444.578644,183.339813 456.036041,181.905197 
	C460.487579,181.347794 459.325562,176.943542 461.839172,175.309402 
	C465.196106,179.071228 465.966309,189.380249 463.260071,193.506592 
	C462.281586,193.611038 461.586487,193.023224 461.274933,192.278793 
	C458.701233,186.128296 453.376862,187.035736 448.460938,187.450378 
	C444.230072,187.807251 444.706451,191.468872 445.281281,194.011688 
	C446.254333,198.316086 443.033813,204.757172 449.242279,206.529053 
	C457.308746,208.831223 465.147980,204.840851 469.818146,197.689285 
	C470.152069,197.177917 470.723267,196.821533 471.249603,196.332260 
	C474.421326,204.572006 470.349182,210.829788 462.142090,211.207260 
	C453.666992,211.597046 445.212952,212.434387 436.746216,213.025787 
	C435.144043,213.137711 433.454895,213.561340 432.000488,212.600433 
	C431.930206,212.112640 431.760956,211.559662 431.856171,211.509583 
	C437.608154,208.484406 436.844360,203.147018 436.574341,198.061676 
	C436.106506,189.251297 435.516846,180.447388 434.953064,171.205322 
z"/>
<path fill="#FFFFFF" opacity="1.000000" stroke="none" 
	d="
M713.101501,274.925964 
	C714.281067,276.355896 715.270508,277.484192 716.190735,278.666351 
	C722.677185,286.999390 722.644531,287.244659 714.302917,294.518066 
	C711.736328,293.232666 713.368408,291.395691 713.801270,289.846405 
	C715.148010,285.026489 708.691650,273.627106 703.796143,273.491425 
	C699.178833,273.363403 696.334106,277.365753 693.477722,280.542358 
	C691.046631,283.246033 693.215881,285.303253 694.741882,287.549469 
	C697.612488,291.774811 700.862244,294.659210 706.874634,291.891510 
	C703.902588,297.594788 699.747620,301.101776 694.920837,304.278809 
	C694.383423,303.333282 693.839783,302.751099 693.959473,302.533081 
	C697.673340,295.768066 692.191040,292.294952 688.821228,288.086517 
	C687.714905,286.704926 686.399292,286.421570 684.935669,287.636230 
	C681.862183,290.186829 678.756287,292.698853 675.706421,295.277313 
	C673.230469,297.370636 673.083496,299.605530 675.165894,302.194275 
	C679.989075,308.190460 684.374878,314.852325 693.824463,312.318512 
	C694.167542,312.226532 694.666199,312.714600 695.088562,312.930420 
	C692.702759,318.211517 684.159790,320.245392 680.720276,316.181702 
	C674.163330,308.434875 667.849915,300.481232 661.485352,292.573303 
	C660.596008,291.468353 659.401672,290.262085 660.948303,288.082001 
	C666.383179,294.142639 669.595337,288.538818 673.234680,285.572784 
	C680.329773,279.790283 687.061096,273.542236 694.350586,268.025482 
	C698.268250,265.060577 696.575684,261.742249 696.675049,257.887634 
	C703.152954,262.549805 707.406128,269.215088 713.101501,274.925964 
z"/>
<path fill="#FFFFFF" opacity="1.000000" stroke="none" 
	d="
M497.968445,212.150146 
	C495.260284,210.040665 492.884918,212.632690 489.766937,211.912445 
	C491.238434,206.287766 489.960144,200.315796 492.520477,194.750702 
	C495.167938,195.589508 494.827240,197.522095 495.195435,199.013260 
	C496.995697,206.304169 502.375824,210.374496 509.717407,209.989883 
	C512.590271,209.839371 514.857544,208.859146 516.112549,206.061737 
	C517.333618,203.339935 516.366394,201.034225 514.489624,199.257965 
	C509.787903,194.808136 504.781158,190.679306 500.103668,186.205429 
	C494.312408,180.666275 493.504913,173.621902 497.697784,167.826736 
	C501.976532,161.912933 509.574982,160.106247 516.399597,163.599960 
	C519.532532,165.203781 522.484192,167.074478 526.961365,164.752777 
	C526.775757,171.264786 526.451538,176.862900 524.558899,182.569351 
	C522.053772,181.329498 522.207397,179.424408 521.907288,177.953705 
	C520.728882,172.179535 516.864197,169.150360 511.625031,167.526077 
	C508.867065,166.671036 506.309692,167.226959 504.489319,169.687408 
	C502.601349,172.239273 503.237213,174.567551 505.033417,176.966751 
	C508.397644,181.460312 513.251099,184.212173 517.372925,187.811874 
	C525.118774,194.576645 527.306580,200.875366 523.855042,207.260468 
	C520.171997,214.073853 511.953125,216.833664 502.920197,214.206589 
	C501.335815,213.745804 499.846588,212.957748 497.968445,212.150146 
z"/>
<path fill="#FFFFFF" opacity="1.000000" stroke="none" 
	d="
M273.016907,229.302368 
	C275.070404,224.226547 278.458832,220.964111 283.073853,218.903091 
	C286.237915,217.490036 289.706909,216.609924 292.118195,212.651657 
	C295.987549,217.773254 299.629791,221.876816 301.156525,227.720840 
	C297.834595,228.179245 296.977020,226.156113 295.551605,225.179810 
	C290.309967,221.589691 283.016052,222.691711 279.484985,227.654709 
	C278.112122,229.584259 277.763214,231.637833 278.594330,233.799637 
	C279.502319,236.161240 281.498169,236.810852 283.849060,236.779526 
	C289.677307,236.701889 295.496155,236.757385 301.319763,236.137177 
	C311.372314,235.066605 316.676483,238.070053 318.700958,245.566391 
	C320.691315,252.936356 316.810455,260.387787 308.944885,264.288269 
	C304.823700,266.331940 300.133575,267.490723 296.724701,273.513184 
	C295.025177,266.726776 289.567596,263.533844 288.443176,257.738037 
	C291.009583,256.344727 292.095032,257.883148 293.363037,258.862183 
	C298.902771,263.139404 305.566193,262.684723 310.403595,257.693298 
	C312.531067,255.498108 313.569214,252.899017 312.538971,249.936417 
	C311.512268,246.984039 308.857605,246.090057 306.086060,246.167679 
	C299.603119,246.349243 293.129761,247.003433 286.648315,247.072403 
	C279.052612,247.153229 274.473999,243.312225 272.653046,236.074722 
	C272.100464,233.878311 272.359009,231.784363 273.016907,229.302368 
z"/>
<path fill="#FFFFFF" opacity="1.000000" stroke="none" 
	d="
M577.260254,211.508026 
	C577.903137,217.979507 576.799316,223.486740 570.831238,226.349518 
	C563.653259,229.792679 556.581848,228.895279 550.071533,224.327408 
	C547.787720,222.724960 545.952576,219.969284 541.966187,223.718323 
	C541.933472,215.834442 544.165588,210.398972 547.195984,205.113235 
	C549.375977,206.015793 549.059753,207.240570 548.845581,208.358307 
	C547.187500,217.009171 555.046997,222.804703 561.925964,223.270279 
	C566.559387,223.583847 569.888184,218.743881 568.004822,214.398575 
	C566.670349,211.319901 564.502319,208.781586 562.308594,206.255737 
	C559.159912,202.630341 555.588318,199.297089 553.614380,194.785507 
	C551.144165,189.139557 552.095581,183.958755 556.314514,179.703827 
	C560.826843,175.152969 566.046082,174.079147 571.804016,176.330963 
	C576.237976,178.064987 579.335938,182.504807 585.386108,182.169037 
	C584.048340,188.314011 583.158020,193.917099 579.129578,199.450165 
	C577.251526,196.044144 578.222412,193.530319 578.023560,191.163635 
	C577.508484,185.036041 571.471924,180.034851 565.678040,181.068863 
	C560.999329,181.903839 559.315491,185.231445 561.434204,189.461365 
	C563.789795,194.164352 568.070801,197.306076 571.157227,201.426437 
	C573.450073,204.487457 575.990295,207.357956 577.260254,211.508026 
z"/>
<path fill="#FFFFFF" opacity="1.000000" stroke="none" 
	d="
M242.241669,253.285187 
	C244.306198,251.521317 245.278839,248.937073 248.953079,248.006958 
	C245.339645,255.913528 251.050095,258.987488 255.186005,262.789978 
	C260.430847,267.611969 266.626129,271.413391 270.773651,277.410950 
	C276.371552,285.505859 276.561737,290.920898 270.862152,298.922119 
	C264.562592,307.765625 253.352310,314.529175 241.647903,303.667084 
	C236.412125,298.808105 230.816544,294.337097 225.389862,289.683441 
	C222.197189,286.945557 219.080933,283.736664 214.906616,288.783234 
	C214.599594,284.048645 222.424530,273.714020 228.170105,271.353333 
	C224.155792,278.938873 229.726868,282.221710 233.974640,285.942413 
	C238.975479,290.322723 244.072296,294.614136 249.353699,298.647949 
	C255.296356,303.186798 260.391907,303.048828 264.559631,298.708405 
	C270.630920,292.385529 271.468781,286.424652 266.619568,280.480896 
	C260.586792,273.086426 252.523712,267.846954 245.601700,261.386383 
	C242.666504,258.646881 240.530212,261.678925 237.800827,262.665405 
	C236.713791,258.131989 240.406723,256.315155 242.241669,253.285187 
z"/>
<path fill="#FFFFFF" opacity="1.000000" stroke="none" 
	d="
M758.380371,347.661743 
	C759.569885,350.359222 761.223267,352.504944 761.709961,356.832367 
	C752.648865,348.464447 742.192322,351.472687 732.742432,349.507935 
	C724.629700,347.821136 718.738770,352.430176 712.653870,356.397217 
	C710.080322,358.075073 712.237793,361.438232 710.399780,364.694366 
	C706.496338,357.767242 702.862549,351.651306 700.265137,343.958344 
	C704.165833,344.774261 704.694885,349.380096 708.392151,347.796295 
	C713.900391,345.436798 720.027954,343.648041 723.117493,338.112640 
	C728.322632,328.786774 735.755188,320.548920 738.001221,309.206207 
	C741.341797,315.103302 745.178345,320.609772 747.322144,328.477844 
	C740.994263,324.222351 739.063660,328.282257 737.026550,331.970734 
	C734.971985,335.690796 731.976562,338.931549 730.697021,343.687378 
	C737.068726,345.204742 743.177856,345.450195 749.258118,345.512482 
	C752.658508,345.547272 752.158691,342.029175 753.314819,339.675262 
	C756.602661,341.311035 756.180847,345.151611 758.380371,347.661743 
z"/>
<path fill="#FFFFFF" opacity="1.000000" stroke="none" 
	d="
M327.878662,209.076141 
	C327.269470,207.849426 326.845490,206.942123 326.359833,206.069092 
	C324.426208,202.593094 323.044006,198.118225 317.403809,201.846451 
	C317.848022,197.333603 329.586334,190.660767 335.844269,191.150574 
	C329.920319,195.725662 333.291382,200.145020 335.419678,204.535126 
	C338.834259,211.578384 342.306396,218.594482 345.829193,225.584244 
	C348.069489,230.029266 349.133911,236.339554 357.330200,232.561783 
	C352.154022,238.906204 345.045166,240.547318 338.449799,244.006622 
	C343.931793,236.679779 338.746429,231.269180 336.015045,225.532349 
	C333.437775,220.119339 330.701752,214.781937 327.878662,209.076141 
z"/>
<path fill="#FFFFFF" opacity="1.000000" stroke="none" 
	d="
M639.607727,712.890991 
	C633.488464,714.456238 630.571655,712.377136 630.654541,706.490845 
	C630.700256,703.249207 630.393311,700.491089 628.436890,697.617188 
	C625.647522,693.519775 627.576355,689.471680 632.185120,688.425415 
	C635.479797,687.677551 637.286377,688.666870 637.351257,692.364990 
	C637.383789,694.214661 636.326355,696.823608 639.351685,697.587158 
	C641.448425,696.290894 640.520752,694.472412 640.577087,692.931519 
	C640.638428,691.251648 641.101501,689.812805 642.937439,689.682861 
	C645.053040,689.533081 645.084778,691.202576 645.214478,692.778015 
	C645.795044,699.830322 645.826782,699.834595 652.473877,697.838074 
	C653.923401,700.620544 652.742615,703.374573 650.483398,704.049988 
	C645.570068,705.518799 643.630493,710.086853 639.607727,712.890991 
M635.655762,706.799744 
	C636.981812,708.575562 638.468079,709.171753 639.922363,707.050232 
	C640.760315,705.827881 640.076538,704.748657 638.805176,704.401062 
	C637.231934,703.970947 634.956116,702.721802 635.655762,706.799744 
z"/>
<path fill="#FFFFFF" opacity="1.000000" stroke="none" 
	d="
M488.747833,743.232849 
	C496.344574,744.677429 498.044739,747.453796 495.636597,754.390625 
	C494.701508,757.084167 495.283722,759.129761 496.979645,761.275391 
	C498.452362,763.138550 500.573242,764.764404 500.442230,767.834595 
	C494.296295,768.917053 492.843475,762.069214 488.369446,760.647339 
	C486.528259,762.040222 487.145844,763.764038 487.440094,765.315674 
	C487.825745,767.349365 487.287933,768.665100 485.101837,768.735413 
	C483.034180,768.802002 481.387970,767.968384 481.563232,765.585693 
	C482.089386,758.433044 480.537964,751.433533 479.871796,743.894470 
	C482.848450,743.644165 485.601013,743.412720 488.747833,743.232849 
M486.468658,751.442139 
	C486.776520,753.239136 487.761719,754.271973 489.422760,753.054871 
	C490.806030,752.041382 490.637421,750.204895 489.469391,749.207520 
	C487.627319,747.634705 487.074554,749.430481 486.468658,751.442139 
z"/>
<path fill="#FFFFFF" opacity="1.000000" stroke="none" 
	d="
M296.018494,705.420898 
	C294.861420,706.961914 293.971375,708.320374 293.094604,709.658630 
	C287.569275,706.537170 287.482513,705.739624 291.127045,701.252808 
	C294.756439,696.784790 298.892487,692.657532 300.762787,687.090515 
	C307.194672,689.141724 312.401520,694.541382 312.054474,698.583130 
	C311.674530,703.007446 308.928497,704.897217 304.877777,704.925842 
	C303.583527,706.987671 304.147827,709.036377 303.966095,710.984863 
	C303.787689,712.898193 304.540314,714.972351 302.844543,716.945129 
	C298.613495,716.246887 299.174286,712.819336 298.684052,709.859619 
	C298.404083,708.169250 300.194855,705.124084 296.018494,705.420898 
M306.734161,697.221924 
	C306.813812,695.709778 306.825684,694.236267 304.667816,693.832275 
	C303.249786,695.141785 300.694427,696.226990 302.585419,698.725220 
	C303.883606,700.440369 305.475372,699.357605 306.734161,697.221924 
z"/>
<path fill="#FFFFFF" opacity="1.000000" stroke="none" 
	d="
M231.821106,634.917603 
	C236.336060,631.530090 240.550598,628.345337 245.217514,624.818787 
	C248.263977,628.504517 250.665817,632.304993 251.234100,637.026367 
	C251.634430,640.352478 249.950165,643.184509 246.745651,642.907104 
	C241.184128,642.425476 240.556305,645.950500 239.589859,649.751709 
	C239.198364,651.291565 239.558243,653.132080 237.715210,654.582581 
	C234.902527,652.953674 234.859955,650.494202 235.289703,647.589478 
	C235.672714,645.000549 237.443283,642.396057 236.060684,639.634277 
	C232.393341,639.654785 233.075027,643.176880 230.985596,644.612976 
	C228.257095,643.556335 227.270081,640.983337 226.110809,638.518738 
	C227.305466,636.228394 229.944382,636.518188 231.821106,634.917603 
M243.899887,633.439880 
	C242.235947,634.467590 241.447769,635.807861 243.184341,637.295471 
	C244.125168,638.101379 245.531738,637.800171 246.184479,636.699707 
	C247.206085,634.977478 247.009796,633.544006 243.899887,633.439880 
z"/>
<path fill="#FFFFFF" opacity="1.000000" stroke="none" 
	d="
M551.424011,732.169189 
	C554.598267,734.077393 557.417908,735.827454 560.235352,737.580933 
	C561.364136,738.283447 562.567749,739.261047 563.852173,738.219849 
	C565.083130,737.222107 564.632935,735.804138 564.137695,734.537170 
	C563.414795,732.687439 562.535522,730.889648 561.946655,729.000000 
	C561.589294,727.853027 561.825073,726.624573 563.258606,726.190125 
	C564.363342,725.855286 565.517456,726.284363 565.659424,727.325073 
	C566.650513,734.589905 571.343445,740.827332 571.416504,748.320251 
	C571.420837,748.766846 571.116028,749.216492 570.837830,749.991089 
	C565.329834,748.613281 561.534302,743.691040 555.871582,742.647644 
	C554.497192,745.699524 555.934631,748.019897 557.129272,750.337036 
	C557.827942,751.692261 558.723633,752.975525 557.522583,754.440918 
	C556.826904,755.289673 555.803894,755.504028 554.804504,755.171448 
	C553.038635,754.583557 553.158691,752.935242 552.825623,751.488770 
	C551.472900,745.614258 551.540405,739.087402 545.365234,735.320740 
	C546.280823,732.244629 548.230713,731.378723 551.424011,732.169189 
z"/>
<path fill="#FFFFFF" opacity="1.000000" stroke="none" 
	d="
M450.473694,756.307251 
	C450.364319,757.905518 450.272217,759.066345 450.280121,760.226562 
	C450.300751,763.265381 451.856415,764.794434 454.899292,764.867126 
	C458.040710,764.942139 459.483582,763.199402 459.611786,760.298035 
	C459.802338,755.985413 459.817993,751.665283 459.935120,747.349121 
	C459.993408,745.201355 460.451843,743.058716 463.175751,743.378601 
	C465.996887,743.709900 465.801056,746.009644 465.271942,748.018127 
	C464.288055,751.752747 464.196747,755.549316 464.002838,759.368835 
	C463.638367,766.547546 461.149292,769.070984 454.813477,769.103027 
	C447.719269,769.138794 445.819763,767.229126 444.996857,759.581543 
	C444.482758,754.803772 446.480377,750.051575 444.874695,745.229553 
	C444.337280,743.615601 445.984650,743.061035 447.413239,742.947876 
	C449.570557,742.776794 451.115906,743.620361 451.087341,745.931702 
	C451.046326,749.246094 450.733368,752.557068 450.473694,756.307251 
z"/>
<path fill="#FFFFFF" opacity="1.000000" stroke="none" 
	d="
M710.169434,638.886047 
	C703.738342,644.878845 700.615051,645.519348 694.979187,642.290039 
	C690.117249,639.504150 687.877991,634.655762 688.955872,629.248230 
	C690.355957,622.223511 695.802063,618.357727 702.185608,619.857483 
	C708.883911,621.431152 713.641541,628.681335 711.991455,634.938599 
	C711.659119,636.198792 710.923157,637.352539 710.169434,638.886047 
M708.497620,632.984314 
	C706.433899,627.991333 702.458435,625.684509 697.303772,625.153992 
	C695.375610,624.955505 693.660645,625.461426 692.757629,627.461792 
	C691.179626,630.957397 694.988281,636.515137 700.197815,638.296326 
	C704.701599,639.836243 707.286743,638.423218 708.497620,632.984314 
z"/>
<path fill="#FFFFFF" opacity="1.000000" stroke="none" 
	d="
M747.346680,536.671509 
	C749.902649,536.756287 751.245056,538.156555 750.971619,540.173340 
	C750.272095,545.332336 749.200623,550.440918 748.201111,555.996765 
	C740.391052,552.557922 733.126160,550.541443 724.924744,549.990417 
	C725.106079,544.585022 726.555054,539.558838 728.367554,534.698669 
	C729.113464,532.698547 731.048889,532.355530 732.643250,534.366699 
	C728.309570,543.317749 728.584595,544.558899 735.030457,545.138733 
	C737.063660,542.955078 735.843628,540.080566 736.491699,537.578857 
	C738.512756,536.479858 739.983582,537.333557 741.415222,538.725647 
	C741.024109,540.656372 740.483643,542.547241 740.294617,544.472595 
	C740.099670,546.458679 741.249023,547.547424 743.247681,547.692017 
	C745.207458,547.833740 746.545349,547.041565 746.694946,545.002869 
	C746.896179,542.261597 746.914917,539.506958 747.346680,536.671509 
z"/>
<path fill="#FFFFFF" opacity="1.000000" stroke="none" 
	d="
M733.401611,505.057800 
	C734.261414,502.791656 735.393372,502.002228 737.336121,503.324463 
	C738.055115,505.405975 736.236755,506.690704 735.780823,508.385315 
	C735.433655,509.676147 734.990723,511.027710 736.065796,512.157410 
	C737.108643,513.253235 738.502686,513.110657 739.813232,512.807800 
	C741.460815,512.427002 741.645020,511.100403 741.626709,509.687500 
	C741.616089,508.858032 741.552612,508.010223 741.692993,507.201935 
	C741.964539,505.639252 742.996826,504.834106 744.548645,505.181763 
	C745.930847,505.491425 746.242859,506.644592 746.015625,507.929718 
	C745.813171,509.074646 745.472595,510.200317 745.340271,511.351410 
	C745.064636,513.749512 746.517578,514.581177 748.612732,514.788269 
	C750.953857,515.019531 752.418762,514.345398 752.673401,511.671204 
	C752.929016,508.986877 751.849670,506.546387 751.206787,503.969147 
	C756.255676,503.867310 757.993286,514.717285 754.419556,522.727051 
	C747.553101,519.229370 739.969177,520.269714 732.466309,519.665344 
	C730.701843,514.691162 732.277344,510.064148 733.401611,505.057800 
z"/>
<path fill="#FFFFFF" opacity="1.000000" stroke="none" 
	d="
M363.839172,741.463501 
	C360.302887,747.983948 352.161407,748.548645 348.365662,742.690369 
	C346.701263,740.121643 347.178558,737.401367 350.075165,735.327698 
	C352.899536,737.557190 351.467621,743.331787 356.871704,742.946350 
	C358.703369,740.897339 357.644379,738.999390 356.672699,737.036865 
	C355.420654,734.508179 353.893005,732.027771 353.183899,729.341736 
	C352.371948,726.266541 353.151306,722.998535 356.413666,721.800964 
	C360.712372,720.222961 364.337860,722.638733 367.105164,725.552185 
	C369.308746,727.872253 367.284363,729.974304 365.805176,731.812683 
	C363.237976,731.016724 363.844452,727.836609 361.041138,727.470642 
	C358.697968,729.138367 360.152985,731.026367 361.162750,732.808228 
	C362.630035,735.397278 364.618286,737.787659 363.839172,741.463501 
z"/>
<path fill="#FFFFFF" opacity="1.000000" stroke="none" 
	d="
M323.717590,715.762573 
	C326.129639,712.370422 327.625214,708.963196 328.183868,704.823547 
	C333.138184,707.062805 337.164886,709.853210 340.856445,713.150269 
	C341.917969,714.098389 342.671143,715.326050 341.312775,716.537476 
	C340.143951,717.579773 339.237396,716.625488 338.355835,715.801514 
	C336.737183,714.288879 335.637756,711.672913 332.728912,712.619934 
	C331.190948,713.120728 330.290894,714.469543 330.409210,716.107544 
	C330.641724,719.326782 333.930298,719.134827 335.752289,720.466492 
	C336.236816,722.594971 335.367279,724.059143 334.282654,725.564270 
	C331.650940,724.777527 331.548798,720.165955 327.832733,721.964355 
	C325.559967,723.064270 324.839447,724.843201 325.033722,727.267944 
	C327.576172,729.351868 330.611938,728.867065 333.800018,728.498596 
	C333.314545,732.513550 332.775055,734.770874 328.242523,732.617249 
	C317.084473,727.315735 317.005066,727.482849 323.717590,715.762573 
z"/>
<path fill="#FFFFFF" opacity="1.000000" stroke="none" 
	d="
M410.483215,753.536743 
	C413.723236,748.621521 416.138855,743.555969 419.782928,739.556396 
	C422.035980,740.424255 422.457489,741.991394 422.631927,743.390686 
	C423.475281,750.156311 425.146973,756.722900 427.069763,763.239075 
	C427.523987,764.778503 427.166901,765.934021 425.462463,766.201660 
	C423.556213,766.500854 421.690094,766.264954 420.952484,764.144775 
	C420.583649,763.084595 420.780365,761.840759 420.601685,760.698730 
	C420.202209,758.145874 418.293091,757.196594 416.073364,756.730957 
	C413.807770,756.255676 412.754456,757.751282 411.968903,759.518127 
	C411.565918,760.424438 411.395935,761.466980 410.859283,762.274231 
	C409.894592,763.725403 408.440582,764.022156 406.947479,763.149231 
	C405.413208,762.252258 405.784882,760.922302 406.534698,759.706970 
	C407.752838,757.732605 409.047211,755.805237 410.483215,753.536743 
z"/>
<path fill="#FFFFFF" opacity="1.000000" stroke="none" 
	d="
M193.074463,572.279297 
	C192.499084,569.902649 192.624100,568.603577 195.362305,569.586304 
	C207.437790,573.920044 207.446243,573.887878 213.816666,562.187317 
	C213.944763,561.952087 214.347275,561.866272 214.971558,561.512634 
	C216.148727,564.982666 219.005692,568.204346 214.420319,571.438110 
	C213.268417,572.250427 212.222733,573.656982 213.156281,575.332031 
	C213.910568,576.685425 215.220749,576.880737 216.626221,576.582092 
	C221.564865,575.533020 221.006241,578.700684 221.003326,582.030518 
	C216.314651,581.678589 212.394958,577.121399 207.978226,580.180420 
	C204.466980,582.612366 203.746124,587.602295 199.718262,590.479980 
	C198.238831,586.824158 196.802292,583.739258 200.685318,580.846375 
	C201.773834,580.035461 203.058990,578.599243 202.292313,576.985596 
	C201.448257,575.209045 199.721817,575.110413 197.980392,575.668091 
	C195.137543,576.578491 194.109665,574.694397 193.074463,572.279297 
z"/>
<path fill="#FFFFFF" opacity="1.000000" stroke="none" 
	d="
M537.321655,758.436646 
	C535.049194,762.367737 531.710388,762.697021 530.124084,759.204102 
	C528.998047,756.724670 527.925476,755.429138 524.978577,755.902527 
	C521.937988,756.390991 521.288696,758.275940 521.184387,760.820190 
	C521.066711,763.690063 519.988892,765.539856 516.009949,765.066528 
	C517.250610,755.892944 520.256836,747.454651 522.078979,738.733337 
	C522.579346,738.627930 523.079712,738.522583 523.580139,738.417175 
	C528.123779,744.982056 532.667480,751.546997 537.321655,758.436646 
z"/>
<path fill="#FFFFFF" opacity="1.000000" stroke="none" 
	d="
M205.500122,528.968018 
	C206.357193,531.103638 206.993759,532.972961 206.512604,535.392883 
	C201.564163,536.268738 196.348724,536.158691 191.572327,538.140747 
	C188.995392,539.210022 187.344543,541.013916 187.938248,543.887634 
	C188.397873,546.112427 189.837128,547.823914 192.398224,547.846924 
	C193.881454,547.860229 195.391113,547.703674 196.847397,547.414551 
	C201.049561,546.580322 205.278030,545.828430 209.292236,544.039856 
	C210.641663,546.162415 211.026443,548.093689 209.624023,550.620972 
	C205.416092,548.342712 201.371643,550.244202 197.195328,551.033813 
	C187.544159,552.858643 184.842972,548.580627 184.317688,541.206421 
	C184.097076,538.109558 185.315765,535.181091 188.349731,533.756958 
	C193.708511,531.241760 199.578278,530.309204 205.500122,528.968018 
z"/>
<path fill="#FFFFFF" opacity="1.000000" stroke="none" 
	d="
M226.385071,602.224915 
	C223.046127,603.814941 219.981827,605.144714 217.143860,606.850891 
	C214.138382,608.657837 213.303543,611.304199 215.189850,614.513123 
	C217.000565,617.593445 219.310989,617.143921 221.991852,615.700256 
	C226.205826,613.430969 230.603149,611.487366 234.012726,608.209351 
	C236.151428,608.944763 236.751801,610.363098 236.853867,612.519287 
	C231.780914,613.834412 227.572830,617.120789 222.749451,619.164001 
	C217.376663,621.439941 214.656540,620.562622 211.874893,615.785706 
	C208.878235,610.639587 209.404327,606.032227 213.588593,602.894592 
	C215.705872,601.307007 218.128357,600.132202 220.366089,598.697876 
	C222.434509,597.372070 224.440552,595.948975 226.428833,594.599487 
	C231.157379,598.571777 231.205200,600.486450 226.385071,602.224915 
z"/>
<path fill="#FFFFFF" opacity="1.000000" stroke="none" 
	d="
M719.991943,564.211426 
	C721.141357,562.638367 722.304871,561.475037 723.889343,562.693787 
	C725.666199,564.060608 724.118408,565.313293 723.410034,566.537842 
	C722.994873,567.255554 722.547424,567.958496 722.185730,568.702698 
	C721.434204,570.249268 720.818481,571.856323 722.473572,573.208801 
	C723.392090,573.959412 724.558167,574.474121 725.700623,573.841370 
	C727.244385,572.986267 727.334778,571.511536 727.020813,569.923889 
	C726.897156,569.298584 727.000610,568.628418 727.000610,567.972290 
	C732.665100,568.333496 733.319458,569.710388 730.558838,575.384277 
	C731.365417,577.498352 733.464661,577.290588 735.121643,577.701721 
	C740.606506,579.062683 741.041199,580.469788 737.256897,585.379883 
	C730.258179,582.695190 723.240051,580.003052 716.053833,577.246460 
	C716.014404,572.636169 718.405212,568.726257 719.991943,564.211426 
z"/>
<path fill="#FFFFFF" opacity="1.000000" stroke="none" 
	d="
M675.129150,662.917297 
	C682.439087,669.618652 685.133057,668.361816 690.214905,656.267517 
	C692.145081,658.894470 692.042664,661.954346 689.741882,665.926453 
	C687.605225,669.614929 684.593018,672.095337 680.085571,671.851379 
	C674.297852,671.538086 668.895569,666.691406 667.827820,661.064758 
	C666.745728,655.362793 670.503906,647.436890 675.825745,645.720093 
	C679.734192,644.459412 680.173035,647.774048 680.585632,650.661316 
	C670.698120,651.713013 669.266113,654.877380 675.129150,662.917297 
z"/>
<path fill="#FFFFFF" opacity="1.000000" stroke="none" 
	d="
M592.527771,723.382263 
	C594.508911,727.082458 596.344116,730.438232 598.218018,733.772217 
	C599.745605,736.490173 598.571472,738.371826 596.139832,739.416626 
	C592.947510,740.788147 593.286072,737.969299 592.659058,736.196106 
	C590.838562,731.048645 588.462708,726.224365 584.814575,722.715393 
	C581.989868,722.844055 582.149414,726.044861 579.323608,725.653137 
	C578.363586,723.327454 578.313965,720.927063 580.730164,719.345337 
	C584.488281,716.885010 588.509094,714.833862 592.883972,713.627991 
	C594.396790,713.210938 596.014771,713.094727 596.770325,714.827271 
	C597.537170,716.585815 596.430908,717.660889 594.918518,718.330078 
	C592.835693,719.251831 591.660461,720.615234 592.527771,723.382263 
z"/>
<path fill="#FFFFFF" opacity="1.000000" stroke="none" 
	d="
M397.622009,741.208496 
	C396.446808,740.425537 395.577087,739.710266 394.592010,738.900146 
	C389.878571,742.428589 389.717560,747.843140 388.455750,752.695435 
	C387.860138,754.986023 387.970825,757.785950 384.464447,756.814026 
	C380.857361,755.814209 381.911316,753.336060 382.898346,750.849548 
	C384.777069,746.116699 386.092377,741.229614 386.644745,736.553284 
	C384.757843,734.561890 382.991730,736.717957 381.178375,735.406250 
	C380.512909,732.342773 381.931671,730.091370 385.174591,730.857300 
	C389.471405,731.872192 394.033203,732.737000 397.722412,735.384155 
	C399.880798,736.932739 402.132843,739.178528 397.622009,741.208496 
z"/>
<path fill="#FFFFFF" opacity="1.000000" stroke="none" 
	d="
M709.885864,598.230347 
	C710.172668,601.400391 712.501587,601.436035 714.406433,601.966736 
	C716.795837,600.587646 715.531738,597.839661 717.018555,595.964111 
	C719.776428,596.836914 721.635193,598.116943 719.634888,601.222839 
	C717.820129,604.040527 718.880127,605.343445 721.659302,606.348328 
	C727.213074,608.356323 727.365723,609.252197 723.199402,613.996399 
	C717.734497,610.700195 712.327332,607.154175 706.123901,605.311829 
	C703.908813,604.653931 703.556091,603.497192 704.140015,601.654724 
	C705.359375,597.807129 707.498840,594.437683 709.893738,591.246094 
	C710.740417,590.117737 712.109009,589.504333 713.305298,590.803650 
	C714.403503,591.996582 713.374329,592.926697 712.515686,593.723022 
	C711.262390,594.885376 710.400696,596.267944 709.885864,598.230347 
z"/>
<path fill="#FFFFFF" opacity="1.000000" stroke="none" 
	d="
M264.406250,662.766846 
	C268.570251,667.518921 270.545959,661.715881 273.558868,661.061096 
	C275.523071,662.022339 276.566040,663.662292 276.169861,665.527161 
	C275.704590,667.717407 273.518097,666.951233 271.957092,667.133179 
	C265.248383,667.914917 258.639557,668.896545 255.147766,675.820557 
	C250.684265,672.274109 250.579086,670.911560 254.551193,668.092407 
	C258.588196,665.227173 259.300201,660.683044 260.800873,656.495178 
	C261.626160,654.192139 261.046631,651.526062 262.781586,649.104553 
	C266.397339,650.920471 268.369354,653.047302 266.103607,657.238281 
	C265.252106,658.813293 264.938477,660.679016 264.406250,662.766846 
z"/>
<path fill="#FFFFFF" opacity="1.000000" stroke="none" 
	d="
M181.740326,500.610321 
	C187.613358,500.445953 192.975235,499.866394 198.352524,498.638000 
	C204.108871,497.323029 201.562637,502.207184 202.573227,504.998352 
	C197.402328,505.268311 192.636047,505.206299 187.912201,505.941071 
	C181.533646,506.933289 180.520035,509.305725 184.467697,514.763489 
	C184.840469,515.278870 185.135315,515.850647 185.581146,516.585449 
	C182.855820,518.857056 181.158783,517.313354 180.045609,515.176086 
	C177.701874,510.676086 178.589478,502.041046 181.740326,500.610321 
z"/>
<path fill="#FFFFFF" opacity="1.000000" stroke="none" 
	d="
M185.275375,423.544617 
	C186.043793,419.870453 186.629852,416.600006 187.370392,413.364899 
	C187.863220,411.211945 188.520035,408.818237 191.517792,409.619995 
	C194.185333,410.333496 194.316696,412.610260 193.922089,414.893036 
	C193.327698,418.331299 192.726654,421.770325 192.021393,425.186920 
	C191.474136,427.838074 190.896973,430.875519 187.160706,430.080109 
	C183.437958,429.287567 184.968201,426.298828 185.275375,423.544617 
z"/>
<path fill="#FFFFFF" opacity="1.000000" stroke="none" 
	d="
M745.642822,431.008057 
	C744.907166,426.369324 744.191284,422.143646 743.577942,417.903198 
	C743.320984,416.126984 743.741577,414.436676 745.773438,414.057251 
	C747.830750,413.673065 748.667358,415.164215 749.166809,416.884766 
	C750.458435,421.333801 751.646362,425.800293 751.393127,430.498840 
	C751.310059,432.039764 752.167664,434.161041 749.855286,434.617950 
	C747.550842,435.073334 746.131104,433.729034 745.642822,431.008057 
z"/>
</svg>